<?xml version="1.0" encoding="utf-8"?>
<!-- Generator: Adobe Illustrator 25.2.3, SVG Export Plug-In . SVG Version: 6.00 Build 0)  -->
<svg version="1.1" id="Layer_1" xmlns="http://www.w3.org/2000/svg" xmlns:xlink="http://www.w3.org/1999/xlink" x="0px" y="0px"
	 viewBox="0 0 1920 156.5" style="enable-background:new 0 0 1920 156.5;" xml:space="preserve">
<style type="text/css">
	.st0{fill:#15181D;}
</style>
<path class="st0" d="M1920,156.5H0V0c0.2,0.1,25.6,9.5,71,23.2c26.8,8.1,55.3,16.1,84.8,23.8c36.8,9.6,75.2,18.8,114.1,27.3
	c99,21.6,201.7,38.7,305.5,51.1c30,3.6,60.4,6.8,90.6,9.5c31.7,2.9,63.8,5.4,95.6,7.3c33.3,2.1,67,3.7,100.2,4.7
	c34.8,1.1,69.9,1.7,104.6,1.7h0.1c330.2,0,651.1-50,953.7-148.5L1920,156.5L1920,156.5z"/>
</svg>
