<svg id="Layer_1" data-name="Layer 1" xmlns="http://www.w3.org/2000/svg" viewBox="0 0 1920 156.54"><defs><style>.cls-1{fill:#15181d;}</style></defs><path class="cls-1" d="M0,0H1920V156.54c-.24-.09-25.57-9.5-71-23.21-26.79-8.08-55.31-16.09-84.76-23.79-36.81-9.62-75.18-18.8-114.06-27.27-99-21.55-201.74-38.73-305.48-51-30-3.57-60.45-6.76-90.55-9.5-31.69-2.89-63.84-5.36-95.56-7.33-33.27-2.07-67-3.66-100.24-4.72C1023.61,8.56,988.42,8,953.77,8h-.1C623.44,8,302.58,58,0,156.54V0Z" transform="translate(0 0)"/></svg>