<svg id="Layer_1" data-name="Layer 1" xmlns="http://www.w3.org/2000/svg" viewBox="0 0 1920 148.54"><defs><style>.cls-1{fill:#15181d;}</style></defs><path class="cls-1" d="M1920,156.54H0C302.58,58,623.44,8,953.67,8h.1c34.65,0,69.84.56,104.6,1.67,33.25,1.06,67,2.65,100.24,4.72,31.72,2,63.87,4.44,95.56,7.33,30.1,2.74,60.57,5.93,90.55,9.5,103.74,12.32,206.51,29.5,305.48,51.05,38.88,8.47,77.25,17.65,114.06,27.27,29.45,7.7,58,15.71,84.76,23.79C1894.43,147,1919.76,156.45,1920,156.54Z" transform="translate(0 -8)"/></svg>