<svg id="Layer_1" data-name="Layer 1" xmlns="http://www.w3.org/2000/svg" viewBox="0 0 1920 148.54"><defs><style>.cls-1{fill:#15181d;}</style></defs><path class="cls-1" d="M0,0H1920c-302.58,98.56-623.44,148.54-953.67,148.54h-.1c-34.65,0-69.84-.56-104.6-1.67-33.25-1.06-67-2.65-100.24-4.72-31.72-2-63.87-4.44-95.56-7.33-30.1-2.74-60.57-5.93-90.55-9.5C471.54,113,368.77,95.82,269.8,74.27,230.92,65.8,192.55,56.62,155.74,47c-29.45-7.7-58-15.71-84.76-23.79C25.57,9.5.24.09,0,0Z" transform="translate(0 0)"/></svg>